<svg id="visual" viewBox="0 0 900 600" width="900" height="600" xmlns="http://www.w3.org/2000/svg" xmlns:xlink="http://www.w3.org/1999/xlink" version="1.1"><path d="M0 178L21.5 181C43 184 86 190 128.8 193.5C171.7 197 214.3 198 257.2 191.8C300 185.7 343 172.3 385.8 165C428.7 157.7 471.3 156.3 514.2 163.3C557 170.3 600 185.7 642.8 190.2C685.7 194.7 728.3 188.3 771.2 181C814 173.7 857 165.3 878.5 161.2L900 157L900 0L878.5 0C857 0 814 0 771.2 0C728.3 0 685.7 0 642.8 0C600 0 557 0 514.2 0C471.3 0 428.7 0 385.8 0C343 0 300 0 257.2 0C214.3 0 171.7 0 128.8 0C86 0 43 0 21.5 0L0 0Z" fill="#ffde7c"></path><path d="M0 139L21.5 135C43 131 86 123 128.8 125.3C171.7 127.7 214.3 140.3 257.2 145.7C300 151 343 149 385.8 142C428.7 135 471.3 123 514.2 119.3C557 115.7 600 120.3 642.8 124C685.7 127.7 728.3 130.3 771.2 130.8C814 131.3 857 129.7 878.5 128.8L900 128L900 0L878.5 0C857 0 814 0 771.2 0C728.3 0 685.7 0 642.8 0C600 0 557 0 514.2 0C471.3 0 428.7 0 385.8 0C343 0 300 0 257.2 0C214.3 0 171.7 0 128.8 0C86 0 43 0 21.5 0L0 0Z" fill="#fed35e"></path><path d="M0 100L21.5 95.3C43 90.7 86 81.3 128.8 78.7C171.7 76 214.3 80 257.2 85.7C300 91.3 343 98.7 385.8 96.5C428.7 94.3 471.3 82.7 514.2 82C557 81.3 600 91.7 642.8 93.3C685.7 95 728.3 88 771.2 87C814 86 857 91 878.5 93.5L900 96L900 0L878.5 0C857 0 814 0 771.2 0C728.3 0 685.7 0 642.8 0C600 0 557 0 514.2 0C471.3 0 428.7 0 385.8 0C343 0 300 0 257.2 0C214.3 0 171.7 0 128.8 0C86 0 43 0 21.5 0L0 0Z" fill="#fcc83d"></path><path d="M0 62L21.5 56.7C43 51.3 86 40.7 128.8 40.7C171.7 40.7 214.3 51.3 257.2 54.2C300 57 343 52 385.8 49.2C428.7 46.3 471.3 45.7 514.2 48.3C557 51 600 57 642.8 55.3C685.7 53.7 728.3 44.3 771.2 40.8C814 37.3 857 39.7 878.5 40.8L900 42L900 0L878.5 0C857 0 814 0 771.2 0C728.3 0 685.7 0 642.8 0C600 0 557 0 514.2 0C471.3 0 428.7 0 385.8 0C343 0 300 0 257.2 0C214.3 0 171.7 0 128.8 0C86 0 43 0 21.5 0L0 0Z" fill="#fbbc04"></path></svg>