<svg id="visual" viewBox="0 0 960 540" width="960" height="540" xmlns="http://www.w3.org/2000/svg" xmlns:xlink="http://www.w3.org/1999/xlink" version="1.1"><rect x="0" y="0" width="960" height="540" fill="#f3f3f3"></rect><defs><linearGradient id="grad1_0" x1="43.8%" y1="100%" x2="100%" y2="0%"><stop offset="14.444444444444446%" stop-color="#f3f3f3" stop-opacity="1"></stop><stop offset="85.55555555555554%" stop-color="#f3f3f3" stop-opacity="1"></stop></linearGradient></defs><defs><linearGradient id="grad2_0" x1="0%" y1="100%" x2="56.3%" y2="0%"><stop offset="14.444444444444446%" stop-color="#f3f3f3" stop-opacity="1"></stop><stop offset="85.55555555555554%" stop-color="#f3f3f3" stop-opacity="1"></stop></linearGradient></defs><g transform="translate(960, 540)"><path d="M-405 0C-408.1 -61.9 -411.3 -123.8 -374.2 -155C-337.1 -186.2 -259.7 -186.6 -219.9 -219.9C-180.1 -253.2 -177.7 -319.4 -147.3 -355.7C-116.9 -392 -58.5 -398.5 0 -405L0 0Z" fill="#4285F4"></path></g><g transform="translate(0, 0)"><path d="M405 0C397.5 59.5 389.9 118.9 349.2 144.7C308.5 170.4 234.6 162.4 202.9 202.9C171.3 243.4 181.8 332.4 155 374.2C128.2 415.9 64.1 410.5 0 405L0 0Z" fill="#4285F4"></path></g></svg>