<svg id="visual" viewBox="0 0 675 900" width="675" height="900" xmlns="http://www.w3.org/2000/svg" xmlns:xlink="http://www.w3.org/1999/xlink" version="1.1"><rect x="0" y="0" width="675" height="900" fill="#f3f3f3"></rect><defs><linearGradient id="grad1_0" x1="0%" y1="100%" x2="100%" y2="0%"><stop offset="30%" stop-color="#f3f3f3" stop-opacity="1"></stop><stop offset="70%" stop-color="#f3f3f3" stop-opacity="1"></stop></linearGradient></defs><defs><linearGradient id="grad2_0" x1="0%" y1="100%" x2="100%" y2="0%"><stop offset="30%" stop-color="#f3f3f3" stop-opacity="1"></stop><stop offset="70%" stop-color="#f3f3f3" stop-opacity="1"></stop></linearGradient></defs><g transform="translate(675, 900)"><path d="M-309.4 0C-295.1 -35.4 -280.7 -70.7 -268.8 -111.4C-257 -152 -247.5 -197.8 -218.8 -218.8C-190 -239.7 -141.9 -235.7 -102.2 -246.7C-62.5 -257.6 -31.2 -283.5 0 -309.4L0 0Z" fill="#4285F4"></path></g><g transform="translate(0, 0)"><path d="M309.4 0C273.3 26.5 237.3 53 228.2 94.5C219.1 136 236.9 192.5 218.8 218.8C200.6 245.1 146.5 241.2 104.1 251.3C61.6 261.4 30.8 285.4 0 309.4L0 0Z" fill="#4285F4"></path></g></svg>